<svg width="27" height="25" viewBox="0 0 27 25" fill="none" xmlns="http://www.w3.org/2000/svg">
<path d="M27 12.5766C27 5.63061 20.9561 6.10352e-05 13.5017 6.10352e-05C6.04387 0.00162334 0 5.63061 0 12.5782C0 18.854 4.93701 24.0564 11.3892 25.0001V16.2121H7.964V12.5782H11.3926V9.80509C11.3926 6.65392 13.4089 4.91351 16.4916 4.91351C17.9696 4.91351 19.5135 5.15879 19.5135 5.15879V8.25216H17.811C16.1355 8.25216 15.6125 9.22235 15.6125 10.2175V12.5766H19.3549L18.7576 16.2105H15.6108V24.9985C22.063 24.0549 27 18.8524 27 12.5766Z" fill="#E68022"/>
</svg>
