<svg width="27" height="25" viewBox="0 0 27 25" fill="none" xmlns="http://www.w3.org/2000/svg">
<g clip-path="url(#clip0_24_205)">
<path d="M13.5 0C9.83644 0 9.37575 0.015625 7.93631 0.075C6.49688 0.1375 5.51644 0.346875 4.6575 0.65625C3.75653 0.97003 2.94045 1.46223 2.26631 2.09844C1.57963 2.72296 1.04812 3.4785 0.70875 4.3125C0.374625 5.10625 0.146812 6.01562 0.081 7.34375C0.016875 8.67969 0 9.10469 0 12.5016C0 15.8953 0.016875 16.3203 0.081 17.6531C0.1485 18.9844 0.374625 19.8922 0.70875 20.6875C1.05469 21.5094 1.51538 22.2062 2.26631 22.9016C3.01556 23.5969 3.76819 24.025 4.65581 24.3438C5.51644 24.6531 6.49519 24.8641 7.93294 24.925C9.37406 24.9844 9.83306 25 13.5 25C17.1669 25 17.6243 24.9844 19.0654 24.925C20.5014 24.8625 21.4853 24.6531 22.3442 24.3438C23.2446 24.0298 24.0601 23.5376 24.7337 22.9016C25.4846 22.2062 25.9453 21.5094 26.2913 20.6875C26.6237 19.8922 26.8515 18.9844 26.919 17.6531C26.9831 16.3203 27 15.8953 27 12.5C27 9.10469 26.9831 8.67969 26.919 7.34531C26.8515 6.01563 26.6237 5.10625 26.2913 4.3125C25.9519 3.47848 25.4204 2.72293 24.7337 2.09844C24.0598 1.46199 23.2436 0.969758 22.3425 0.65625C21.4819 0.346875 20.4998 0.135937 19.0637 0.075C17.6226 0.015625 17.1653 0 13.4966 0H13.5017H13.5ZM12.2901 2.25312H13.5017C17.1062 2.25312 17.5331 2.26406 18.9557 2.325C20.2719 2.37969 20.9874 2.58437 21.4633 2.75469C22.0928 2.98125 22.5433 3.25312 23.0158 3.69062C23.4883 4.12813 23.7803 4.54375 24.0249 5.12813C24.2106 5.56719 24.4299 6.22969 24.489 7.44844C24.5548 8.76562 24.5683 9.16094 24.5683 12.4969C24.5683 15.8328 24.5548 16.2297 24.489 17.5469C24.4299 18.7656 24.2089 19.4266 24.0249 19.8672C23.8085 20.4099 23.463 20.9007 23.0141 21.3031C22.5416 21.7406 22.0928 22.0109 21.4616 22.2375C20.9891 22.4094 20.2736 22.6125 18.9557 22.6688C17.5331 22.7281 17.1062 22.7422 13.5017 22.7422C9.89719 22.7422 9.46856 22.7281 8.046 22.6688C6.72975 22.6125 6.01594 22.4094 5.54006 22.2375C4.95365 22.0374 4.42315 21.7181 3.98756 21.3031C3.53827 20.9001 3.19228 20.4088 2.97506 19.8656C2.79113 19.4266 2.57006 18.7641 2.511 17.5453C2.44688 16.2281 2.43338 15.8328 2.43338 12.4937C2.43338 9.15625 2.44688 8.7625 2.511 7.44531C2.57175 6.22656 2.79113 5.56406 2.97675 5.12344C3.22144 4.54063 3.51506 4.12344 3.98756 3.68594C4.46006 3.24844 4.90894 2.97813 5.54006 2.75156C6.01594 2.57969 6.72975 2.37656 8.046 2.32031C9.29138 2.26719 9.774 2.25156 12.2901 2.25V2.25312ZM20.7073 4.32812C20.4946 4.32812 20.2839 4.36692 20.0874 4.44231C19.8908 4.51769 19.7122 4.62818 19.5618 4.76746C19.4114 4.90675 19.292 5.07211 19.2106 5.2541C19.1292 5.43609 19.0873 5.63114 19.0873 5.82812C19.0873 6.02511 19.1292 6.22016 19.2106 6.40215C19.292 6.58414 19.4114 6.7495 19.5618 6.88879C19.7122 7.02807 19.8908 7.13856 20.0874 7.21394C20.2839 7.28933 20.4946 7.32812 20.7073 7.32812C21.137 7.32812 21.549 7.17009 21.8528 6.88879C22.1566 6.60748 22.3273 6.22595 22.3273 5.82812C22.3273 5.4303 22.1566 5.04877 21.8528 4.76746C21.549 4.48616 21.137 4.32812 20.7073 4.32812ZM13.5017 6.08125C12.5821 6.06797 11.6689 6.2242 10.8152 6.54085C9.96142 6.85749 9.18424 7.32824 8.52888 7.92566C7.87351 8.52309 7.35305 9.23526 6.99779 10.0207C6.64254 10.8062 6.45958 11.6492 6.45958 12.5008C6.45958 13.3523 6.64254 14.1954 6.99779 14.9808C7.35305 15.7663 7.87351 16.4785 8.52888 17.0759C9.18424 17.6733 9.96142 18.1441 10.8152 18.4607C11.6689 18.7774 12.5821 18.9336 13.5017 18.9203C15.3217 18.894 17.0576 18.2061 18.3346 17.0051C19.6117 15.804 20.3275 14.1862 20.3275 12.5008C20.3275 10.8154 19.6117 9.19752 18.3346 7.99648C17.0576 6.79545 15.3217 6.10754 13.5017 6.08125ZM13.5017 8.33281C14.6953 8.33281 15.84 8.77185 16.6841 9.55335C17.5281 10.3349 18.0023 11.3948 18.0023 12.5C18.0023 13.6052 17.5281 14.6651 16.6841 15.4466C15.84 16.2281 14.6953 16.6672 13.5017 16.6672C12.3081 16.6672 11.1633 16.2281 10.3193 15.4466C9.47529 14.6651 9.00113 13.6052 9.00113 12.5C9.00113 11.3948 9.47529 10.3349 10.3193 9.55335C11.1633 8.77185 12.3081 8.33281 13.5017 8.33281Z" fill="#E68022"/>
</g>
<defs>
<clipPath id="clip0_24_205">
<rect width="27" height="25" fill="white"/>
</clipPath>
</defs>
</svg>
